HIERARCHY
ROOT Hips
{
    OFFSET   0.000000   0.000000   0.000000
    CHANNELS 6 Xposition Yposition Zposition Zrotation Xrotation Yrotation
    JOINT Chest
    {
        OFFSET   0.000000   8.007230   0.000000
        CHANNELS 3 Zrotation Xrotation Yrotation
        JOINT Chest2
        {
            OFFSET   0.000000  22.077100   0.000000
            CHANNELS 3 Zrotation Xrotation Yrotation
            JOINT Neck
            {
                OFFSET   0.000000  23.254800  -0.000021
                CHANNELS 3 Zrotation Xrotation Yrotation
                JOINT Head
                {
                    OFFSET   0.000000  14.370000   1.956610
                    CHANNELS 3 Zrotation Xrotation Yrotation
                    End Site
                    {
                        OFFSET   0.000000  19.566000   0.000000
                    }
                }
            }
            JOINT LeftCollar
            {
                OFFSET   3.911900  19.017000  -0.467063
                CHANNELS 3 Zrotation Xrotation Yrotation
                JOINT LeftShoulder
                {
                    OFFSET  10.383700   0.000000   0.000000
                    CHANNELS 3 Zrotation Xrotation Yrotation
                    JOINT LeftElbow
                    {
                        OFFSET  26.662100   0.001529   0.000325
                        CHANNELS 3 Zrotation Xrotation Yrotation
                        JOINT LeftWrist
                        {
                            OFFSET  28.869000  -0.000011  -0.000096
                            CHANNELS 3 Zrotation Xrotation Yrotation
                            JOINT LeftFinger0
                            {
                                OFFSET   2.044650  -2.323460   3.252850
                                CHANNELS 3 Zrotation Xrotation Yrotation
                                JOINT LeftFinger01
                                {
                                    OFFSET   3.088130   0.000000   0.000000
                                    CHANNELS 3 Zrotation Xrotation Yrotation
                                    JOINT LeftFinger02
                                    {
                                        OFFSET   2.639460   0.000000   0.000000
                                        CHANNELS 3 Zrotation Xrotation Yrotation
                                        End Site
                                        {
                                            OFFSET   2.582190   0.000000   0.000000
                                        }
                                    }
                                }
                            }
                            JOINT LeftFinger1
                            {
                                OFFSET   8.364480   0.000000   3.252850
                                CHANNELS 3 Zrotation Xrotation Yrotation
                                JOINT LeftFinger11
                                {
                                    OFFSET   4.646930   0.000000   0.000000
                                    CHANNELS 3 Zrotation Xrotation Yrotation
                                    JOINT LeftFinger12
                                    {
                                        OFFSET   2.323460   0.000000   0.000000
                                        CHANNELS 3 Zrotation Xrotation Yrotation
                                        End Site
                                        {
                                            OFFSET   2.273050   0.000000   0.000000
                                        }
                                    }
                                }
                            }
                            JOINT LeftFinger2
                            {
                                OFFSET   8.364480   0.000016   1.078090
                                CHANNELS 3 Zrotation Xrotation Yrotation
                                JOINT LeftFinger21
                                {
                                    OFFSET   5.111620   0.000000   0.000000
                                    CHANNELS 3 Zrotation Xrotation Yrotation
                                    JOINT LeftFinger22
                                    {
                                        OFFSET   2.788160   0.000017   0.000000
                                        CHANNELS 3 Zrotation Xrotation Yrotation
                                        End Site
                                        {
                                            OFFSET   2.727660   0.000000   0.000000
                                        }
                                    }
                                }
                            }
                            JOINT LeftFinger3
                            {
                                OFFSET   7.899780   0.000015  -1.078090
                                CHANNELS 3 Zrotation Xrotation Yrotation
                                JOINT LeftFinger31
                                {
                                    OFFSET   4.646920   0.000000   0.000000
                                    CHANNELS 3 Zrotation Xrotation Yrotation
                                    JOINT LeftFinger32
                                    {
                                        OFFSET   2.323470   0.000000   0.000000
                                        CHANNELS 3 Zrotation Xrotation Yrotation
                                        End Site
                                        {
                                            OFFSET   2.273050   0.000000   0.000000
                                        }
                                    }
                                }
                            }
                            JOINT LeftFinger4
                            {
                                OFFSET   7.435090   0.000000  -3.252850
                                CHANNELS 3 Zrotation Xrotation Yrotation
                                JOINT LeftFinger41
                                {
                                    OFFSET   3.717550   0.000000   0.000000
                                    CHANNELS 3 Zrotation Xrotation Yrotation
                                    JOINT LeftFinger42
                                    {
                                        OFFSET   1.858760   0.000000   0.000000
                                        CHANNELS 3 Zrotation Xrotation Yrotation
                                        End Site
                                        {
                                            OFFSET   1.818440   0.000000   0.000000
                                        }
                                    }
                                }
                            }
                        }
                    }
                }
            }
            JOINT RightCollar
            {
                OFFSET  -3.911900  19.017000  -0.467062
                CHANNELS 3 Zrotation Xrotation Yrotation
                JOINT RightShoulder
                {
                    OFFSET -10.383700   0.000015   0.000000
                    CHANNELS 3 Zrotation Xrotation Yrotation
                    JOINT RightElbow
                    {
                        OFFSET -26.662100   0.001341   0.000385
                        CHANNELS 3 Zrotation Xrotation Yrotation
                        JOINT RightWrist
                        {
                            OFFSET -28.869000   0.000025  -0.000080
                            CHANNELS 3 Zrotation Xrotation Yrotation
                            JOINT RightFinger0
                            {
                                OFFSET  -2.044650  -2.323490   3.252850
                                CHANNELS 3 Zrotation Xrotation Yrotation
                                JOINT RightFinger01
                                {
                                    OFFSET  -3.088130   0.000000   0.000000
                                    CHANNELS 3 Zrotation Xrotation Yrotation
                                    JOINT RightFinger02
                                    {
                                        OFFSET  -2.639460   0.000000   0.000000
                                        CHANNELS 3 Zrotation Xrotation Yrotation
                                        End Site
                                        {
                                            OFFSET  -2.582190   0.000000   0.000000
                                        }
                                    }
                                }
                            }
                            JOINT RightFinger1
                            {
                                OFFSET  -8.364480   0.000000   3.252850
                                CHANNELS 3 Zrotation Xrotation Yrotation
                                JOINT RightFinger11
                                {
                                    OFFSET  -4.646930   0.000000   0.000000
                                    CHANNELS 3 Zrotation Xrotation Yrotation
                                    JOINT RightFinger12
                                    {
                                        OFFSET  -2.323470   0.000000   0.000000
                                        CHANNELS 3 Zrotation Xrotation Yrotation
                                        End Site
                                        {
                                            OFFSET  -2.273050   0.000000   0.000000
                                        }
                                    }
                                }
                            }
                            JOINT RightFinger2
                            {
                                OFFSET  -8.364480   0.000000   1.078090
                                CHANNELS 3 Zrotation Xrotation Yrotation
                                JOINT RightFinger21
                                {
                                    OFFSET  -5.111610   0.000000   0.000000
                                    CHANNELS 3 Zrotation Xrotation Yrotation
                                    JOINT RightFinger22
                                    {
                                        OFFSET  -2.788160   0.000000   0.000000
                                        CHANNELS 3 Zrotation Xrotation Yrotation
                                        End Site
                                        {
                                            OFFSET  -2.727660   0.000000   0.000000
                                        }
                                    }
                                }
                            }
                            JOINT RightFinger3
                            {
                                OFFSET  -7.899780   0.000000  -1.078090
                                CHANNELS 3 Zrotation Xrotation Yrotation
                                JOINT RightFinger31
                                {
                                    OFFSET  -4.646920   0.000000   0.000000
                                    CHANNELS 3 Zrotation Xrotation Yrotation
                                    JOINT RightFinger32
                                    {
                                        OFFSET  -2.323470   0.000000   0.000000
                                        CHANNELS 3 Zrotation Xrotation Yrotation
                                        End Site
                                        {
                                            OFFSET  -2.273050   0.000000   0.000000
                                        }
                                    }
                                }
                            }
                            JOINT RightFinger4
                            {
                                OFFSET  -7.435090   0.000000  -3.252850
                                CHANNELS 3 Zrotation Xrotation Yrotation
                                JOINT RightFinger41
                                {
                                    OFFSET  -3.717550   0.000000   0.000000
                                    CHANNELS 3 Zrotation Xrotation Yrotation
                                    JOINT RightFinger42
                                    {
                                        OFFSET  -1.858770   0.000000   0.000000
                                        CHANNELS 3 Zrotation Xrotation Yrotation
                                        End Site
                                        {
                                            OFFSET  -1.818440   0.000000   0.000000
                                        }
                                    }
                                }
                            }
                        }
                    }
                }
            }
        }
    }
    JOINT LeftHip
    {
        OFFSET   9.783010   0.000000   0.000000
        CHANNELS 3 Zrotation Xrotation Yrotation
        JOINT LeftKnee
        {
            OFFSET   0.000070 -41.789100   0.000028
            CHANNELS 3 Zrotation Xrotation Yrotation
            JOINT LeftAnkle
            {
                OFFSET   0.000087 -41.133200  -0.000100
                CHANNELS 3 Zrotation Xrotation Yrotation
                JOINT LeftToe
                {
                    OFFSET   0.000000  -6.358960  14.674500
                    CHANNELS 3 Zrotation Xrotation Yrotation
                    End Site
                    {
                        OFFSET   0.000000   0.000000   3.913200
                    }
                }
            }
        }
    }
    JOINT RightHip
    {
        OFFSET  -9.783020   0.000000   0.000000
        CHANNELS 3 Zrotation Xrotation Yrotation
        JOINT RightKnee
        {
            OFFSET   0.000044 -41.789100  -0.000870
            CHANNELS 3 Zrotation Xrotation Yrotation
            JOINT RightAnkle
            {
                OFFSET  -0.000090 -41.133200  -0.000245
                CHANNELS 3 Zrotation Xrotation Yrotation
                JOINT RightToe
                {
                    OFFSET   0.000000  -6.358960  14.674500
                    CHANNELS 3 Zrotation Xrotation Yrotation
                    End Site
                    {
                        OFFSET   0.000000   0.000000   3.913200
                    }
                }
            }
        }
    }
}
MOTION
Frames: 4
Frame Time:   0.016667
  0.167600  89.976000  -0.505949  -0.465060  -3.219660  -0.931803  -0.252144   2.335050  -0.186370  -0.497299   4.670910  -0.362899   1.303700  -0.044633  -0.005562   2.141730  -0.090791   4.040510  -1.433310  -0.422846   4.443630 -73.238800  15.607000   0.526087  -3.024090  -3.570980 -13.406300  14.285200  -2.361770   5.270160  46.018800  38.253900 -79.462600 -20.594700   0.003236   0.002159  -5.294920   0.004973  -0.000805 -33.596100   7.863590 -11.645500 -28.144400  -0.004175  -0.000608 -19.701100   0.003156  -0.000504 -28.730200   2.045480  -3.743860 -42.829500  -0.005635  -0.002382 -28.524400   0.006456   0.008625 -28.252000   0.574481  -1.081560 -33.801100  -0.006388  -0.000864 -22.511500  -0.004103  -0.000668 -34.768200  -0.424271   0.601984 -52.155600  -0.005826   0.002856 -34.735700  -0.002092  -0.002236   8.619850   1.290640   2.295580  69.904900  11.242200  -1.393560   3.349840  -6.416680   8.864330 -13.934800 -14.930200   2.200220 -37.160100  27.458600  59.703500  30.242300   0.002731  -0.003040  10.121200   0.001350   0.001136  28.133200   1.297240   2.424410  23.040500   0.002022  -0.003056  16.128400   0.006503  -0.004951  27.220200  -1.228400  -2.386620  28.028400   0.004207   0.002055  18.666900   0.002973  -0.010798  27.742000  -3.337510  -6.314380  31.580200  -0.000504  -0.002758  21.032400   0.002583  -0.001977  31.832600  -5.696650  -9.084120  48.428200   0.003821  -0.000202  32.253200  -0.002140  -0.007314   0.241190   2.420710   0.671973   0.682902   1.477750  11.619000  -5.142830  -2.195390   3.254840   0.000000   0.000000  -0.000000   2.779090   1.332180  -5.116150  -1.736430   4.998720  -9.932480  -8.981470  -0.467181   2.370430   0.000000   0.000000   0.000000
  0.167394  89.976000  -0.496298  -0.464129  -3.247880  -0.931829  -0.252227   2.346370  -0.177941  -0.497782   4.693520  -0.345971   1.287180  -0.020539  -0.005565   2.114490  -0.042061   4.075050  -1.439330  -0.433223   4.429760 -73.239700  15.628600   0.530197  -3.025990  -3.570530 -13.436800  14.285600  -2.370800   5.270190  46.020100  38.253400 -79.460100 -20.594700   0.003237   0.002160  -5.295100   0.004970  -0.000800 -33.603700   7.863740 -11.640100 -28.150400  -0.004177  -0.000608 -19.705300   0.003152  -0.000505 -28.730400   2.045920  -3.737800 -42.839800  -0.005637  -0.002387 -28.531200   0.006457   0.008626 -28.251700   0.574379  -1.089290 -33.812200  -0.006388  -0.000865 -22.518900  -0.004105  -0.000671 -34.774700  -0.424508   0.596844 -52.165300  -0.005828   0.002854 -34.742200  -0.002095  -0.002239   8.641540   1.248410   2.302190  69.891000  11.233900  -1.400440   3.344300  -6.527290   8.832070 -13.949400 -14.889600   2.213780 -37.181100  27.461900  59.682700  30.217900   0.002739  -0.003047  10.108900   0.001345   0.001132  28.120000   1.283550   2.400180  23.029200   0.002022  -0.003052  16.120500   0.006505  -0.004954  27.212000  -1.238900  -2.407860  27.994400   0.004209   0.002058  18.644300   0.002970  -0.010803  27.740700  -3.342770  -6.325400  31.557500  -0.000513  -0.002751  21.017300   0.002582  -0.001972  31.816700  -5.703160  -9.099860  48.406400   0.003818  -0.000200  32.238600  -0.002143  -0.007305   0.232654   2.293260   0.672437   0.681442   1.661320  11.629700  -5.142610  -2.202650   3.241900  -0.000000   0.000000   0.000000   2.776680   1.367320  -5.115620  -1.729570   4.998110  -9.952520  -8.987440  -0.475051   2.379200   0.000000   0.000000   0.000000
  0.167110  89.976000  -0.479860  -0.462343  -3.298410  -0.931876  -0.252375   2.367580  -0.165192  -0.498555   4.735880  -0.320347   1.251800   0.024714  -0.005574   2.056300   0.049640   4.155770  -1.454250  -0.457810   4.409590 -73.241400  15.665900   0.536647  -3.029010  -3.569810 -13.485400  14.284000  -2.386850   5.270250  46.016700  38.252100 -79.454800 -20.594700   0.003238   0.002168  -5.295270   0.004966  -0.000794 -33.616900   7.864040 -11.629300 -28.160900  -0.004180  -0.000609 -19.712700   0.003148  -0.000505 -28.730800   2.046360  -3.727690 -42.859600  -0.005638  -0.002395 -28.544400   0.006458   0.008628 -28.251500   0.574235  -1.097020 -33.830500  -0.006390  -0.000868 -22.531100  -0.004109  -0.000679 -34.785300  -0.424840   0.591705 -52.181300  -0.005832   0.002849 -34.752800  -0.002102  -0.002244   8.672820   1.181020   2.312480  69.869200  11.222000  -1.407300   3.326530  -6.710100   8.763990 -13.976400 -14.819900   2.227040 -37.201300  27.466500  59.660100  30.193400   0.002747  -0.003058  10.096700   0.001340   0.001127  28.098700   1.263150   2.364200  23.011200   0.002021  -0.003039  16.107900   0.006507  -0.004964  27.199400  -1.255920  -2.442220  27.942700   0.004215   0.002066  18.609800   0.002963  -0.010817  27.738600  -3.351980  -6.344490  31.521900  -0.000538  -0.002734  20.993600   0.002577  -0.001960  31.790800  -5.717430  -9.131240  48.371700   0.003812  -0.000193  32.215500  -0.002150  -0.007286   0.220188   2.165810   0.672904   0.679714   1.844840  11.646600  -5.142320  -2.215850   3.222150   0.000000   0.000000   0.000000   2.773130   1.430650  -5.115160  -1.718160   4.997290  -9.986230  -8.998290  -0.487192   2.393720   0.000000   0.000000   0.000000
  0.167000  89.975900  -0.465912  -0.460245  -3.345780  -0.928776  -0.252554   2.389340  -0.156339  -0.499246   4.779380  -0.302545   1.207930   0.071043  -0.005584   1.984210   0.143957   4.263450  -1.477190  -0.495074   4.398200 -73.244100  15.694700   0.541864  -3.029580  -3.572500 -13.519100  14.277900  -2.402770   5.263230  46.006700  38.247600 -79.450900 -20.591000   0.003229   0.002191  -5.294320   0.004967  -0.000795 -33.629500   7.860200 -11.616800 -28.170300  -0.004181  -0.000608 -19.719200   0.003148  -0.000503 -28.731300   2.043920  -3.720740 -42.881400  -0.005635  -0.002403 -28.559000   0.006455   0.008625 -28.251600   0.574176  -1.090100 -33.844800  -0.006396  -0.000875 -22.540600  -0.004114  -0.000691 -34.793000  -0.424983   0.595370 -52.192900  -0.005838   0.002841 -34.760500  -0.002115  -0.002252   8.689090   1.130880   2.320570  69.844300  11.215700  -1.362750   3.297410  -6.855520   8.687120 -14.008200 -14.766800   2.218090 -37.216300  27.506300  59.692200  30.196000   0.002745  -0.003066  10.098000   0.001350   0.001126  28.082300   1.253060   2.346990  22.997400   0.002018  -0.003018  16.098000   0.006506  -0.004979  27.191500  -1.268620  -2.467690  27.910900   0.004224   0.002079  18.588700   0.002953  -0.010840  27.736700  -3.359930  -6.360670  31.498000  -0.000577  -0.002708  20.977700   0.002567  -0.001942  31.769300  -5.734330  -9.165020  48.342400   0.003804  -0.000182  32.196000  -0.002163  -0.007259   0.211485   2.548810   0.671538   0.671163   1.531060  11.657400  -5.142050  -2.229570   3.211460   0.000000   0.000000  -0.000000   2.772090   1.491540  -5.117470  -1.709450   4.997910 -10.014800  -9.008850  -0.494481   2.407970   0.000000   0.000000   0.000000
